<svg width="700" height="500" viewBox="0 0 700 500" fill="none" xmlns="http://www.w3.org/2000/svg">
<path d="M0 0H700V500H0V0Z" fill="white"/>
<path d="M284.411 260.715C289.579 260.715 293.746 257.776 295.196 253.076H288.135C287.453 254.281 286.069 255.007 284.411 255.007C282.169 255.007 280.669 253.786 280.207 251.423H295.5C295.593 250.785 295.647 250.165 295.647 249.544C295.647 243.501 291.05 238.762 284.411 238.762C277.946 238.762 273.222 243.408 273.222 249.723C273.222 256.016 277.984 260.715 284.411 260.715ZM288.658 247.493H280.33C280.905 245.447 282.342 244.324 284.411 244.324C286.551 244.324 288.035 245.432 288.658 247.493ZM308.493 260.713C310.884 260.713 313.023 259.927 314.708 258.561L315.317 260.017H320.802V239.417H315.512L314.788 241.011C313.084 239.607 310.919 238.797 308.493 238.797C302.194 238.797 297.691 243.336 297.691 249.716C297.691 256.118 302.194 260.715 308.493 260.715V260.713ZM309.442 254.431C306.784 254.431 304.831 252.423 304.831 249.732C304.831 247.06 306.768 245.052 309.442 245.052C312.099 245.052 314.052 247.06 314.052 249.732C314.052 252.423 312.099 254.431 309.442 254.431ZM333.221 260.713C338.694 260.713 342.327 257.897 342.327 253.592C342.327 248.368 338.001 247.692 334.747 247.114C332.79 246.764 331.214 246.491 331.214 245.32C331.214 244.365 331.978 243.802 333.116 243.802C334.403 243.802 335.285 244.412 335.285 245.728H341.93C341.85 241.555 338.451 238.764 333.203 238.764C327.927 238.764 324.408 241.428 324.408 245.559C324.408 250.555 328.642 251.519 331.837 252.035C333.816 252.363 335.374 252.702 335.374 253.891C335.374 254.955 334.39 255.486 333.352 255.486C332.007 255.486 330.96 254.792 330.96 253.286H324.129C324.194 257.749 327.606 260.715 333.221 260.715V260.713ZM347.899 267.704C353.219 267.704 355.77 265.426 358.548 259.122L367.18 239.438H359.559L355.484 250.787L351.113 239.438H343.403L351.916 258.338C350.955 260.9 350.135 261.607 347.422 261.607H345.469V267.704H347.899ZM381.428 260.713C387.77 260.713 392.251 256.156 392.251 249.754C392.251 243.352 387.772 238.795 381.428 238.795C379.623 238.781 377.849 239.273 376.309 240.216V232H369.297V260.039H374.546L375.217 258.51C376.889 259.907 379.025 260.713 381.428 260.713ZM380.48 254.431C377.822 254.431 375.869 252.423 375.869 249.756C375.869 247.063 377.822 245.056 380.48 245.056C383.137 245.056 385.09 247.063 385.09 249.754C385.09 252.423 383.121 254.431 380.48 254.431ZM405.12 260.713C407.512 260.713 409.65 259.927 411.336 258.561L411.944 260.017H417.429V239.417H412.142L411.415 241.011C409.714 239.607 407.547 238.797 405.12 238.797C398.822 238.797 394.321 243.336 394.321 249.716C394.321 256.118 398.822 260.715 405.12 260.715V260.713ZM406.07 254.431C403.412 254.431 401.458 252.423 401.458 249.732C401.458 247.06 403.397 245.052 406.07 245.052C408.728 245.052 410.681 247.06 410.681 249.732C410.681 252.423 408.728 254.431 406.07 254.431ZM428.997 260.039V249.038C428.997 246.416 430.269 244.871 432.482 244.871C434.268 244.871 435.169 246.061 435.169 248.459V260.037H442.263V247.48C442.263 242.231 439.123 238.831 434.339 238.831C431.675 238.831 429.387 239.855 427.852 241.564L426.879 239.44H421.901V260.041H428.997V260.039ZM453.909 260.039V251.327L459.07 260.039H467.434L460.363 249.258L466.783 239.438H458.816L453.909 247.509V232H446.813V260.039H453.909Z" fill="#2D314D"/>
<path fill-rule="evenodd" clip-rule="evenodd" d="M235.573 232L216 267.704H226.847L246.422 232H235.573Z" fill="url(#paint0_linear_1_89)"/>
<path opacity="0.5" fill-rule="evenodd" clip-rule="evenodd" d="M248.926 232L229.351 267.704H240.198L259.773 232H248.926Z" fill="url(#paint1_linear_1_89)"/>
<path opacity="0.15" fill-rule="evenodd" clip-rule="evenodd" d="M262.277 232L242.704 267.704H253.55L273.124 232H262.277Z" fill="url(#paint2_linear_1_89)"/>
<path fill-rule="evenodd" clip-rule="evenodd" d="M330.464 500H0V359H35.0097C46.4898 359 57.4998 363.561 65.6179 371.68L80.8785 386.942C88.9966 395.062 100.007 399.623 111.487 399.623H212.974C224.454 399.623 235.465 404.184 243.583 412.303L328.141 496.872C329.072 497.804 329.852 498.859 330.464 500Z" fill="url(#paint3_linear_1_89)"/>
<path fill-rule="evenodd" clip-rule="evenodd" d="M473.288 116.238L415.158 58.1018V58.1013C413.523 56.4659 412.225 54.5243 411.34 52.3874C410.455 50.2505 410 47.9602 410 45.6473C410 35.9205 417.884 28.0356 427.609 28.0356C429.921 28.0356 432.211 27.5801 434.347 26.6949C436.484 25.8097 438.425 24.5123 440.06 22.8767C446.294 16.6408 446.876 6.89139 441.804 0H700V224H665.427C653.947 223.999 642.937 219.438 634.82 211.319L565.107 141.599C556.989 133.479 545.979 128.918 534.499 128.918H503.897C492.416 128.918 481.406 124.357 473.288 116.238Z" fill="#2D314D"/>
<defs>
<linearGradient id="paint0_linear_1_89" x1="2412.31" y1="232" x2="303.77" y2="3516.95" gradientUnits="userSpaceOnUse">
<stop stop-color="#33D35E"/>
<stop offset="1" stop-color="#2AB6D9"/>
</linearGradient>
<linearGradient id="paint1_linear_1_89" x1="2425.66" y1="232" x2="317.121" y2="3516.95" gradientUnits="userSpaceOnUse">
<stop stop-color="#33D35E"/>
<stop offset="1" stop-color="#2AB6D9"/>
</linearGradient>
<linearGradient id="paint2_linear_1_89" x1="2438.89" y1="232" x2="330.291" y2="3516.84" gradientUnits="userSpaceOnUse">
<stop stop-color="#33D35E"/>
<stop offset="1" stop-color="#2AB6D9"/>
</linearGradient>
<linearGradient id="paint3_linear_1_89" x1="-102" y1="10516.3" x2="40747.5" y2="29002.9" gradientUnits="userSpaceOnUse">
<stop stop-color="#33D35E"/>
<stop offset="1" stop-color="#2AB6D9"/>
</linearGradient>
</defs>
</svg>
